{
  "accessors": [
    {
      "bufferView": 2,
      "componentType": 5126,
      "count": 4508,
      "max": [
        0.038506489247083664,
        0.1898314356803894,
        0.13588657975196838
      ],
      "min": [
        -0.05225282907485962,
        0.00018078678112942725,
        0.0003199641068931669
      ],
      "type": "VEC3"
    },
    {
      "bufferView": 2,
      "byteOffset": 54096,
      "componentType": 5126,
      "count": 4508,
      "max": [
        1.0,
        0.7296984195709229,
        1.0
      ],
      "min": [
        -1.0,
        -0.802116334438324,
        -0.5957301259040833
      ],
      "type": "VEC3"
    },
    {
      "bufferView": 1,
      "componentType": 5126,
      "count": 4508,
      "max": [
        0.9992445111274719,
        0.960595965385437
      ],
      "min": [
        1.1597672710195184e-05,
        -3.144137735944241e-05
      ],
      "type": "VEC2"
    },
    {
      "bufferView": 0,
      "componentType": 5125,
      "count": 6762,
      "type": "SCALAR"
    },
    {
      "bufferView": 2,
      "byteOffset": 108192,
      "componentType": 5126,
      "count": 5740,
      "max": [
        0.038195833563804626,
        0.1900000274181366,
        0.13573181629180908
      ],
      "min": [
        -0.051942165940999985,
        7.450580596923828e-09,
        1.3418495655059814e-05
      ],
      "type": "VEC3"
    },
    {
      "bufferView": 2,
      "byteOffset": 177072,
      "componentType": 5126,
      "count": 5740,
      "max": [
        0.9999995827674866,
        1.0,
        0.597642183303833
      ],
      "min": [
        -0.9999996423721313,
        -0.999995768070221,
        -1.0
      ],
      "type": "VEC3"
    },
    {
      "bufferView": 1,
      "byteOffset": 36064,
      "componentType": 5126,
      "count": 5740,
      "max": [
        1.1198582649230957,
        1.0
      ],
      "min": [
        0.2226315587759018,
        0.0
      ],
      "type": "VEC2"
    },
    {
      "bufferView": 0,
      "byteOffset": 27048,
      "componentType": 5125,
      "count": 8442,
      "type": "SCALAR"
    }
  ],
  "asset": {
    "extras": {
      "author": "Christian (https://sketchfab.com/Enzi1984)",
      "license": "CC-BY-NC-4.0 (http://creativecommons.org/licenses/by-nc/4.0/)",
      "source": "https://sketchfab.com/3d-models/harry-potter-movie-collection-bb1fbd03ae3b4dff89bc358b4cbda7fd",
      "title": "Harry Potter - movie collection"
    },
    "generator": "Sketchfab-12.92.0",
    "version": "2.0"
  },
  "bufferViews": [
    {
      "buffer": 0,
      "byteLength": 60816,
      "name": "floatBufferViews",
      "target": 34963
    },
    {
      "buffer": 0,
      "byteLength": 81984,
      "byteOffset": 60816,
      "byteStride": 8,
      "name": "floatBufferViews",
      "target": 34962
    },
    {
      "buffer": 0,
      "byteLength": 245952,
      "byteOffset": 142800,
      "byteStride": 12,
      "name": "floatBufferViews",
      "target": 34962
    }
  ],
  "buffers": [
    {
      "byteLength": 388752,
      "uri": "scene.bin"
    }
  ],
  "images": [
    {
      "uri": "textures/Image_Cover-HP_baseColor.png"
    }
  ],
  "materials": [
    {
      "doubleSided": true,
      "name": "Image_Cover-HP",
      "pbrMetallicRoughness": {
        "baseColorTexture": {
          "index": 0
        },
        "metallicFactor": 0.0,
        "roughnessFactor": 0.0
      }
    },
    {
      "doubleSided": true,
      "name": "Black_Plastic",
      "pbrMetallicRoughness": {
        "baseColorFactor": [
          0.0,
          0.0,
          0.0,
          1.0
        ],
        "metallicFactor": 0.0,
        "roughnessFactor": 0.7
      }
    }
  ],
  "meshes": [
    {
      "name": "Object_0",
      "primitives": [
        {
          "attributes": {
            "NORMAL": 1,
            "POSITION": 0,
            "TEXCOORD_0": 2
          },
          "indices": 3,
          "material": 0,
          "mode": 4
        }
      ]
    },
    {
      "name": "Object_1",
      "primitives": [
        {
          "attributes": {
            "NORMAL": 5,
            "POSITION": 4,
            "TEXCOORD_0": 6
          },
          "indices": 7,
          "material": 1,
          "mode": 4
        }
      ]
    }
  ],
  "nodes": [
    {
      "children": [
        1
      ],
      "matrix": [
        1.0,
        0.0,
        0.0,
        0.0,
        0.0,
        2.220446049250313e-16,
        -1.0,
        0.0,
        0.0,
        1.0,
        2.220446049250313e-16,
        0.0,
        0.0,
        0.0,
        0.0,
        1.0
      ],
      "name": "Sketchfab_model"
    },
    {
      "children": [
        2
      ],
      "name": "root"
    },
    {
      "children": [
        3
      ],
      "matrix": [
        1.0,
        0.0,
        0.0,
        0.0,
        0.0,
        2.220446049250313e-16,
        1.0,
        0.0,
        0.0,
        -1.0,
        2.220446049250313e-16,
        0.0,
        0.0,
        0.0,
        0.0,
        1.0
      ],
      "name": "GLTF_SceneRootNode"
    },
    {
      "children": [
        4
      ],
      "name": "Harry Potter Movies_1"
    },
    {
      "children": [
        5,
        6
      ],
      "name": "DVD-HP_0"
    },
    {
      "mesh": 0,
      "name": "Object_5"
    },
    {
      "mesh": 1,
      "name": "Object_6"
    }
  ],
  "samplers": [
    {
      "magFilter": 9729,
      "minFilter": 9987,
      "wrapS": 10497,
      "wrapT": 10497
    }
  ],
  "scene": 0,
  "scenes": [
    {
      "name": "Sketchfab_Scene",
      "nodes": [
        0
      ]
    }
  ],
  "textures": [
    {
      "sampler": 0,
      "source": 0
    }
  ]
}
