{
  "accessors": [
    {
      "bufferView": 2,
      "componentType": 5126,
      "count": 22057,
      "max": [
        0.1852259486913681,
        0.30766454339027405,
        0.6374489665031433
      ],
      "min": [
        -0.18603909015655518,
        -1.2836623191833496,
        -0.30766454339027405
      ],
      "type": "VEC3"
    },
    {
      "bufferView": 2,
      "byteOffset": 264684,
      "componentType": 5126,
      "count": 22057,
      "max": [
        1.0,
        1.0,
        1.0
      ],
      "min": [
        -1.0,
        -1.0,
        -1.0
      ],
      "type": "VEC3"
    },
    {
      "bufferView": 1,
      "componentType": 5126,
      "count": 22057,
      "max": [
        1.0,
        1.0
      ],
      "min": [
        0.0,
        0.0
      ],
      "type": "VEC2"
    },
    {
      "bufferView": 0,
      "componentType": 5125,
      "count": 124908,
      "type": "SCALAR"
    },
    {
      "bufferView": 2,
      "byteOffset": 529368,
      "componentType": 5126,
      "count": 58,
      "max": [
        0.018815405666828156,
        -0.5493981838226318,
        0.4478442370891571
      ],
      "min": [
        -0.019184596836566925,
        -0.7237361669540405,
        0.40392670035362244
      ],
      "type": "VEC3"
    },
    {
      "bufferView": 2,
      "byteOffset": 530064,
      "componentType": 5126,
      "count": 58,
      "max": [
        1.0,
        0.03430818393826485,
        0.9994113445281982
      ],
      "min": [
        -1.0,
        -0.03430818021297455,
        -0.9994112849235535
      ],
      "type": "VEC3"
    },
    {
      "bufferView": 1,
      "byteOffset": 176456,
      "componentType": 5126,
      "count": 58,
      "max": [
        0.8451700806617737,
        1.0
      ],
      "min": [
        0.5251667499542236,
        0.0
      ],
      "type": "VEC2"
    },
    {
      "bufferView": 0,
      "byteOffset": 499632,
      "componentType": 5125,
      "count": 168,
      "type": "SCALAR"
    },
    {
      "bufferView": 2,
      "byteOffset": 530760,
      "componentType": 5126,
      "count": 65532,
      "max": [
        0.18722563982009888,
        0.3312457501888275,
        0.6388307213783264
      ],
      "min": [
        -0.18803878128528595,
        -1.3072435855865479,
        -0.3312457501888275
      ],
      "type": "VEC3"
    },
    {
      "bufferView": 2,
      "byteOffset": 1317144,
      "componentType": 5126,
      "count": 65532,
      "max": [
        1.0,
        1.0,
        1.0
      ],
      "min": [
        -1.0,
        -1.0,
        -1.0
      ],
      "type": "VEC3"
    },
    {
      "bufferView": 1,
      "byteOffset": 176920,
      "componentType": 5126,
      "count": 65532,
      "max": [
        1.0000001192092896,
        1.0000001192092896
      ],
      "min": [
        0.0,
        0.0
      ],
      "type": "VEC2"
    },
    {
      "bufferView": 0,
      "byteOffset": 500304,
      "componentType": 5125,
      "count": 221460,
      "type": "SCALAR"
    },
    {
      "bufferView": 2,
      "byteOffset": 2103528,
      "componentType": 5126,
      "count": 8271,
      "max": [
        0.014726132154464722,
        0.30713170766830444,
        0.3312457501888275
      ],
      "min": [
        -0.014726133085787296,
        -1.3072435855865479,
        -0.3312457501888275
      ],
      "type": "VEC3"
    },
    {
      "bufferView": 2,
      "byteOffset": 2202780,
      "componentType": 5126,
      "count": 8271,
      "max": [
        1.0,
        1.0,
        1.0
      ],
      "min": [
        -1.0,
        -1.0,
        -1.0
      ],
      "type": "VEC3"
    },
    {
      "bufferView": 1,
      "byteOffset": 701176,
      "componentType": 5126,
      "count": 8271,
      "max": [
        0.0,
        0.0
      ],
      "min": [
        0.0,
        0.0
      ],
      "type": "VEC2"
    },
    {
      "bufferView": 0,
      "byteOffset": 1386144,
      "componentType": 5125,
      "count": 46521,
      "type": "SCALAR"
    },
    {
      "bufferView": 2,
      "byteOffset": 2302032,
      "componentType": 5126,
      "count": 4452,
      "max": [
        -0.03754555061459541,
        -0.3220199942588806,
        0.005152106285095215
      ],
      "min": [
        -0.04541567340493202,
        -0.49995875358581543,
        -0.17232179641723633
      ],
      "type": "VEC3"
    },
    {
      "bufferView": 2,
      "byteOffset": 2355456,
      "componentType": 5126,
      "count": 4452,
      "max": [
        1.0,
        1.0,
        1.0
      ],
      "min": [
        -1.0,
        -1.0,
        -1.0
      ],
      "type": "VEC3"
    },
    {
      "bufferView": 1,
      "byteOffset": 767344,
      "componentType": 5126,
      "count": 4452,
      "max": [
        0.0,
        0.0
      ],
      "min": [
        0.0,
        0.0
      ],
      "type": "VEC2"
    },
    {
      "bufferView": 0,
      "byteOffset": 1572228,
      "componentType": 5125,
      "count": 6804,
      "type": "SCALAR"
    }
  ],
  "asset": {
    "extras": {
      "author": "mmaarriioo (https://sketchfab.com/mmaarriioo)",
      "license": "CC-BY-4.0 (http://creativecommons.org/licenses/by/4.0/)",
      "source": "https://sketchfab.com/3d-models/bicycle-fixie-inc-peacemaker-fe0a6cc81b5f435397456870696ede8d",
      "title": "Bicycle Fixie Inc Peacemaker"
    },
    "generator": "Sketchfab-16.14.0",
    "version": "2.0"
  },
  "bufferViews": [
    {
      "buffer": 0,
      "byteLength": 1599444,
      "name": "floatBufferViews",
      "target": 34963
    },
    {
      "buffer": 0,
      "byteLength": 802960,
      "byteOffset": 1599444,
      "byteStride": 8,
      "name": "floatBufferViews",
      "target": 34962
    },
    {
      "buffer": 0,
      "byteLength": 2408880,
      "byteOffset": 2402404,
      "byteStride": 12,
      "name": "floatBufferViews",
      "target": 34962
    }
  ],
  "buffers": [
    {
      "byteLength": 4811284,
      "uri": "scene.bin"
    }
  ],
  "materials": [
    {
      "doubleSided": true,
      "name": "Material",
      "pbrMetallicRoughness": {
        "baseColorFactor": [
          0.8,
          0.8,
          0.8,
          1.0
        ],
        "metallicFactor": 0.0,
        "roughnessFactor": 0.8040408205773457
      }
    },
    {
      "doubleSided": true,
      "name": "Material.004",
      "pbrMetallicRoughness": {
        "baseColorFactor": [
          0.00731959,
          0.00224682,
          0.8,
          1.0
        ],
        "metallicFactor": 0.0,
        "roughnessFactor": 0.9908515913744963
      }
    },
    {
      "doubleSided": true,
      "name": "Material.001",
      "pbrMetallicRoughness": {
        "baseColorFactor": [
          0.00663838,
          0.00663838,
          0.00663838,
          1.0
        ],
        "metallicFactor": 0.0
      }
    },
    {
      "doubleSided": true,
      "name": "Material.002",
      "pbrMetallicRoughness": {
        "baseColorFactor": [
          0.00275158,
          0.00275158,
          0.00275158,
          1.0
        ],
        "metallicFactor": 0.0,
        "roughnessFactor": 0.9993847280074472
      }
    }
  ],
  "meshes": [
    {
      "name": "Wheel R_Material_0",
      "primitives": [
        {
          "attributes": {
            "NORMAL": 1,
            "POSITION": 0,
            "TEXCOORD_0": 2
          },
          "indices": 3,
          "material": 0,
          "mode": 4
        }
      ]
    },
    {
      "name": "Wheel R_Material.004_0",
      "primitives": [
        {
          "attributes": {
            "NORMAL": 5,
            "POSITION": 4,
            "TEXCOORD_0": 6
          },
          "indices": 7,
          "material": 1,
          "mode": 4
        }
      ]
    },
    {
      "name": "Wheel R_Material.001_0",
      "primitives": [
        {
          "attributes": {
            "NORMAL": 9,
            "POSITION": 8,
            "TEXCOORD_0": 10
          },
          "indices": 11,
          "material": 2,
          "mode": 4
        }
      ]
    },
    {
      "name": "Wheel R_Material.001_0",
      "primitives": [
        {
          "attributes": {
            "NORMAL": 13,
            "POSITION": 12,
            "TEXCOORD_0": 14
          },
          "indices": 15,
          "material": 2,
          "mode": 4
        }
      ]
    },
    {
      "name": "Wheel R_Material.002_0",
      "primitives": [
        {
          "attributes": {
            "NORMAL": 17,
            "POSITION": 16,
            "TEXCOORD_0": 18
          },
          "indices": 19,
          "material": 3,
          "mode": 4
        }
      ]
    }
  ],
  "nodes": [
    {
      "children": [
        1
      ],
      "matrix": [
        1.0,
        0.0,
        0.0,
        0.0,
        0.0,
        2.220446049250313e-16,
        -1.0,
        0.0,
        0.0,
        1.0,
        2.220446049250313e-16,
        0.0,
        0.0,
        0.0,
        0.0,
        1.0
      ],
      "name": "Sketchfab_model"
    },
    {
      "children": [
        2
      ],
      "matrix": [
        0.009999999776482582,
        0.0,
        0.0,
        0.0,
        0.0,
        0.0,
        0.009999999776482582,
        0.0,
        0.0,
        -0.009999999776482582,
        0.0,
        0.0,
        0.0,
        0.0,
        0.0,
        1.0
      ],
      "name": "5ce84796fef34ac29ce43685b77634b7.fbx"
    },
    {
      "children": [
        3
      ],
      "name": "RootNode"
    },
    {
      "children": [
        4,
        5,
        6,
        7,
        8
      ],
      "matrix": [
        100.0,
        0.0,
        0.0,
        0.0,
        0.0,
        -1.629206793918314e-05,
        -99.99999999999868,
        0.0,
        0.0,
        99.99999999999868,
        -1.629206793918314e-05,
        0.0,
        7.493802128312466e-15,
        33.74908447265625,
        -49.02814483642578,
        1.0
      ],
      "name": "Wheel R"
    },
    {
      "mesh": 0,
      "name": "Wheel R_Material_0"
    },
    {
      "mesh": 1,
      "name": "Wheel R_Material.004_0"
    },
    {
      "mesh": 2,
      "name": "Wheel R_Material.001_0"
    },
    {
      "mesh": 3,
      "name": "Wheel R_Material.001_0"
    },
    {
      "mesh": 4,
      "name": "Wheel R_Material.002_0"
    }
  ],
  "scene": 0,
  "scenes": [
    {
      "name": "Sketchfab_Scene",
      "nodes": [
        0
      ]
    }
  ]
}
