{
  "accessors": [
    {
      "bufferView": 2,
      "componentType": 5126,
      "count": 640,
      "max": [
        0.4975149929523468,
        1.0,
        0.2004449963569641
      ],
      "min": [
        -0.07128509879112244,
        -0.47943198680877686,
        -0.525858998298645
      ],
      "type": "VEC3"
    },
    {
      "bufferView": 2,
      "byteOffset": 7680,
      "componentType": 5126,
      "count": 640,
      "max": [
        0.9774545431137085,
        0.9554533362388611,
        0.9929772615432739
      ],
      "min": [
        -0.9809134602546692,
        -0.998049259185791,
        -0.9968529939651489
      ],
      "type": "VEC3"
    },
    {
      "bufferView": 3,
      "componentType": 5126,
      "count": 640,
      "max": [
        0.9864275455474854,
        0.9946654438972473,
        0.9946078062057495,
        1.0
      ],
      "min": [
        -0.995793342590332,
        -0.9953029155731201,
        -0.9944350719451904,
        -1.0
      ],
      "type": "VEC4"
    },
    {
      "bufferView": 1,
      "componentType": 5126,
      "count": 640,
      "max": [
        0.9701219797134399,
        0.9829239845275879
      ],
      "min": [
        0.024237999692559242,
        0.01501999981701374
      ],
      "type": "VEC2"
    },
    {
      "bufferView": 0,
      "componentType": 5125,
      "count": 2748,
      "type": "SCALAR"
    },
    {
      "bufferView": 2,
      "byteOffset": 15360,
      "componentType": 5126,
      "count": 240,
      "max": [
        0.40667200088500977,
        0.06533379852771759,
        0.4946790039539337
      ],
      "min": [
        -0.4665359854698181,
        -0.1489730030298233,
        -0.3785479962825775
      ],
      "type": "VEC3"
    },
    {
      "bufferView": 2,
      "byteOffset": 18240,
      "componentType": 5126,
      "count": 240,
      "max": [
        0.9812816381454468,
        0.9297977685928345,
        0.9803688526153564
      ],
      "min": [
        -0.9829543828964233,
        -1.0,
        -0.9812816381454468
      ],
      "type": "VEC3"
    },
    {
      "bufferView": 3,
      "byteOffset": 10240,
      "componentType": 5126,
      "count": 240,
      "max": [
        0.9999673962593079,
        0.9997153282165527,
        0.8372625708580017,
        1.0
      ],
      "min": [
        -0.7335805892944336,
        -0.9998562932014465,
        -0.9829639196395874,
        1.0
      ],
      "type": "VEC4"
    },
    {
      "bufferView": 1,
      "byteOffset": 5120,
      "componentType": 5126,
      "count": 240,
      "max": [
        0.9935070276260376,
        0.9272099733352661
      ],
      "min": [
        0.002643000101670623,
        0.3686450123786926
      ],
      "type": "VEC2"
    },
    {
      "bufferView": 0,
      "byteOffset": 10992,
      "componentType": 5125,
      "count": 1152,
      "type": "SCALAR"
    },
    {
      "bufferView": 2,
      "byteOffset": 21120,
      "componentType": 5126,
      "count": 56,
      "max": [
        0.2880080044269562,
        0.04291339963674545,
        0.3713519871234894
      ],
      "min": [
        -0.34372401237487793,
        -0.09237030148506165,
        -0.2620750069618225
      ],
      "type": "VEC3"
    },
    {
      "bufferView": 2,
      "byteOffset": 21792,
      "componentType": 5126,
      "count": 56,
      "max": [
        0.45041993260383606,
        0.9999842643737793,
        0.239887997508049
      ],
      "min": [
        -0.3791629374027252,
        0.8749626874923706,
        -0.4363700747489929
      ],
      "type": "VEC3"
    },
    {
      "bufferView": 3,
      "byteOffset": 14080,
      "componentType": 5126,
      "count": 56,
      "max": [
        -0.7897228598594666,
        0.4561574161052704,
        0.5355297327041626,
        1.0
      ],
      "min": [
        -0.9002942442893982,
        -0.36875098943710327,
        0.363014280796051,
        1.0
      ],
      "type": "VEC4"
    },
    {
      "bufferView": 1,
      "byteOffset": 7040,
      "componentType": 5126,
      "count": 56,
      "max": [
        0.9949110150337219,
        0.9960939884185791
      ],
      "min": [
        0.00390625,
        0.0039062199648469687
      ],
      "type": "VEC2"
    },
    {
      "bufferView": 0,
      "byteOffset": 15600,
      "componentType": 5125,
      "count": 270,
      "type": "SCALAR"
    },
    {
      "bufferView": 2,
      "byteOffset": 22464,
      "componentType": 5126,
      "count": 938,
      "max": [
        0.43778300285339355,
        -0.05728980153799057,
        0.525858998298645
      ],
      "min": [
        -0.4975149929523468,
        -1.0,
        -0.40959298610687256
      ],
      "type": "VEC3"
    },
    {
      "bufferView": 2,
      "byteOffset": 33720,
      "componentType": 5126,
      "count": 938,
      "max": [
        0.9998883605003357,
        0.9920967817306519,
        0.9998787641525269
      ],
      "min": [
        -0.999875009059906,
        -1.0,
        -0.9998747706413269
      ],
      "type": "VEC3"
    },
    {
      "bufferView": 3,
      "byteOffset": 14976,
      "componentType": 5126,
      "count": 938,
      "max": [
        0.999674379825592,
        0.9974141120910645,
        0.9996033310890198,
        1.0
      ],
      "min": [
        -0.9995414018630981,
        -0.9999827146530151,
        -0.999855637550354,
        1.0
      ],
      "type": "VEC4"
    },
    {
      "bufferView": 1,
      "byteOffset": 7488,
      "componentType": 5126,
      "count": 938,
      "max": [
        0.9980469942092896,
        0.8382310271263123
      ],
      "min": [
        0.0019531298894435167,
        0.0019531199941411614
      ],
      "type": "VEC2"
    },
    {
      "bufferView": 0,
      "byteOffset": 16680,
      "componentType": 5125,
      "count": 5058,
      "type": "SCALAR"
    }
  ],
  "asset": {
    "extras": {
      "author": "Ermolli (https://sketchfab.com/ermolli)",
      "license": "CC-BY-4.0 (http://creativecommons.org/licenses/by/4.0/)",
      "source": "https://sketchfab.com/3d-models/mate-uruguayo-e2fd6553b7b144f8afe2dc51929f95a3",
      "title": "Mate Uruguayo."
    },
    "generator": "Sketchfab-12.67.0",
    "version": "2.0"
  },
  "bufferViews": [
    {
      "buffer": 0,
      "byteLength": 36912,
      "name": "floatBufferViews",
      "target": 34963
    },
    {
      "buffer": 0,
      "byteLength": 14992,
      "byteOffset": 36912,
      "byteStride": 8,
      "name": "floatBufferViews",
      "target": 34962
    },
    {
      "buffer": 0,
      "byteLength": 44976,
      "byteOffset": 51904,
      "byteStride": 12,
      "name": "floatBufferViews",
      "target": 34962
    },
    {
      "buffer": 0,
      "byteLength": 29984,
      "byteOffset": 96880,
      "byteStride": 16,
      "name": "floatBufferViews",
      "target": 34962
    }
  ],
  "buffers": [
    {
      "byteLength": 126864,
      "uri": "scene.bin"
    }
  ],
  "images": [
    {
      "uri": "textures/MateFull3_baseColor.png"
    },
    {
      "uri": "textures/MateFull3_metallicRoughness.png"
    },
    {
      "uri": "textures/MateFull3_normal.png"
    },
    {
      "uri": "textures/MateFull2_baseColor.png"
    },
    {
      "uri": "textures/MateFull2_metallicRoughness.png"
    },
    {
      "uri": "textures/MateFull2_normal.png"
    },
    {
      "uri": "textures/MateFull1_baseColor.png"
    },
    {
      "uri": "textures/MateFull1_metallicRoughness.png"
    },
    {
      "uri": "textures/MateFull1_normal.png"
    },
    {
      "uri": "textures/MateFull_baseColor.png"
    },
    {
      "uri": "textures/MateFull_metallicRoughness.png"
    },
    {
      "uri": "textures/MateFull_normal.png"
    }
  ],
  "materials": [
    {
      "alphaMode": "BLEND",
      "doubleSided": true,
      "name": "MateFull3",
      "normalTexture": {
        "index": 2
      },
      "occlusionTexture": {
        "index": 1
      },
      "pbrMetallicRoughness": {
        "baseColorTexture": {
          "index": 0
        },
        "metallicRoughnessTexture": {
          "index": 1
        }
      }
    },
    {
      "alphaMode": "BLEND",
      "doubleSided": true,
      "name": "MateFull2",
      "normalTexture": {
        "index": 5
      },
      "occlusionTexture": {
        "index": 4
      },
      "pbrMetallicRoughness": {
        "baseColorTexture": {
          "index": 3
        },
        "metallicRoughnessTexture": {
          "index": 4
        }
      }
    },
    {
      "alphaMode": "BLEND",
      "doubleSided": true,
      "name": "MateFull1",
      "normalTexture": {
        "index": 8
      },
      "pbrMetallicRoughness": {
        "baseColorTexture": {
          "index": 6
        },
        "metallicRoughnessTexture": {
          "index": 7
        }
      }
    },
    {
      "alphaMode": "BLEND",
      "doubleSided": true,
      "name": "MateFull",
      "normalTexture": {
        "index": 11
      },
      "occlusionTexture": {
        "index": 10
      },
      "pbrMetallicRoughness": {
        "baseColorTexture": {
          "index": 9
        },
        "metallicRoughnessTexture": {
          "index": 10
        }
      }
    }
  ],
  "meshes": [
    {
      "name": "defaultMaterial",
      "primitives": [
        {
          "attributes": {
            "NORMAL": 1,
            "POSITION": 0,
            "TANGENT": 2,
            "TEXCOORD_0": 3
          },
          "indices": 4,
          "material": 3,
          "mode": 4
        }
      ]
    },
    {
      "name": "defaultMaterial",
      "primitives": [
        {
          "attributes": {
            "NORMAL": 6,
            "POSITION": 5,
            "TANGENT": 7,
            "TEXCOORD_0": 8
          },
          "indices": 9,
          "material": 2,
          "mode": 4
        }
      ]
    },
    {
      "name": "defaultMaterial",
      "primitives": [
        {
          "attributes": {
            "NORMAL": 11,
            "POSITION": 10,
            "TANGENT": 12,
            "TEXCOORD_0": 13
          },
          "indices": 14,
          "material": 1,
          "mode": 4
        }
      ]
    },
    {
      "name": "defaultMaterial",
      "primitives": [
        {
          "attributes": {
            "NORMAL": 16,
            "POSITION": 15,
            "TANGENT": 17,
            "TEXCOORD_0": 18
          },
          "indices": 19,
          "material": 0,
          "mode": 4
        }
      ]
    }
  ],
  "nodes": [
    {
      "children": [
        1
      ],
      "matrix": [
        1.0,
        0.0,
        0.0,
        0.0,
        0.0,
        2.220446049250313e-16,
        -1.0,
        0.0,
        0.0,
        1.0,
        2.220446049250313e-16,
        0.0,
        0.0,
        0.0,
        0.0,
        1.0
      ],
      "name": "Sketchfab_model"
    },
    {
      "children": [
        2,
        4,
        6,
        8
      ],
      "matrix": [
        1.0,
        0.0,
        0.0,
        0.0,
        0.0,
        -4.371139006309477e-08,
        0.999999999999999,
        0.0,
        0.0,
        -0.999999999999999,
        -4.371139006309477e-08,
        0.0,
        0.0,
        0.0,
        0.0,
        1.0
      ],
      "name": "Collada visual scene group"
    },
    {
      "children": [
        3
      ],
      "name": "MateFull"
    },
    {
      "mesh": 0,
      "name": "defaultMaterial"
    },
    {
      "children": [
        5
      ],
      "name": "MateFull1"
    },
    {
      "mesh": 1,
      "name": "defaultMaterial"
    },
    {
      "children": [
        7
      ],
      "name": "MateFull2"
    },
    {
      "mesh": 2,
      "name": "defaultMaterial"
    },
    {
      "children": [
        9
      ],
      "name": "MateFull3"
    },
    {
      "mesh": 3,
      "name": "defaultMaterial"
    }
  ],
  "samplers": [
    {
      "magFilter": 9729,
      "minFilter": 9987,
      "wrapS": 10497,
      "wrapT": 10497
    },
    {
      "magFilter": 9729,
      "minFilter": 9729,
      "wrapS": 10497,
      "wrapT": 10497
    }
  ],
  "scene": 0,
  "scenes": [
    {
      "name": "Sketchfab_Scene",
      "nodes": [
        0
      ]
    }
  ],
  "textures": [
    {
      "sampler": 0,
      "source": 0
    },
    {
      "sampler": 0,
      "source": 1
    },
    {
      "sampler": 0,
      "source": 2
    },
    {
      "sampler": 0,
      "source": 3
    },
    {
      "sampler": 0,
      "source": 4
    },
    {
      "sampler": 0,
      "source": 5
    },
    {
      "sampler": 0,
      "source": 6
    },
    {
      "sampler": 0,
      "source": 7
    },
    {
      "sampler": 0,
      "source": 8
    },
    {
      "sampler": 0,
      "source": 9
    },
    {
      "sampler": 0,
      "source": 10
    },
    {
      "sampler": 1,
      "source": 11
    }
  ]
}
